<?xml version="1.0" encoding="iso-8859-1"?>
<!-- Generator: Adobe Illustrator 26.4.1, SVG Export Plug-In . SVG Version: 6.00 Build 0)  -->
<svg version="1.1" baseProfile="basic" id="Layer_1"
	 xmlns="http://www.w3.org/2000/svg" xmlns:xlink="http://www.w3.org/1999/xlink" x="0px" y="0px" viewBox="0 0 40 40"
	 xml:space="preserve">
<linearGradient id="SVGID_1_" gradientUnits="userSpaceOnUse" x1="31.9155" y1="31.8488" x2="25.0879" y2="26.05">
	<stop  offset="0" style="stop-color:#B2B2B2"/>
	<stop  offset="0.9994" style="stop-color:#000000"/>
</linearGradient>
<polygon style="fill:url(#SVGID_1_);" points="29.976,27 24.451,27.176 33.95,36.778 36.778,33.95 "/>
<path style="fill:#B2B2B2;" d="M24.313,27c-1.788,1.256-3.962,2-6.313,2c-6.075,0-11-4.925-11-11S11.925,7,18,7s11,4.925,11,11
	c0,2.659-0.944,5.098-2.515,7h4.776C32.368,22.909,33,20.53,33,18c0-8.284-6.716-15-15-15S3,9.716,3,18c0,8.284,6.716,15,15,15
	c4.903,0,9.243-2.363,11.98-6H24.313z"/>
</svg>